<svg id="Capa_1" data-name="Capa 1"
    xmlns="http://www.w3.org/2000/svg" viewBox="0 0 450.11 512">
    <path d="M105,307.76,124,296.65a25.33,25.33,0,0,1,25.88.15l17.72,10.65a55.27,55.27,0,0,0,56.48.31L243,296.65a25.33,25.33,0,0,1,25.88.15l17.72,10.65a55.3,55.3,0,0,0,56.48.31L362,296.65a25.33,25.33,0,0,1,25.88.15l17.73,10.65a55.26,55.26,0,0,0,56.47.31l19-11.12-15.17-25.88-19,11.12a25.3,25.3,0,0,1-25.85-.14l-17.72-10.65a55.3,55.3,0,0,0-56.52-.31l-18.93,11.1a25.3,25.3,0,0,1-25.85-.14l-17.72-10.65a53.33,53.33,0,0,0-5.49-2.89v-206a32.15,32.15,0,1,1,64.3,0V96.06h30V62.15a62.15,62.15,0,1,0-124.3,0v119.3H122.75V62.15a32.15,32.15,0,1,1,64.29,0V96.06h30V62.15a62.15,62.15,0,1,0-124.29,0v218l-2.9,1.7A25.28,25.28,0,0,1,64,281.74l-17.6-10.58L31,296.87l17.6,10.58A55.27,55.27,0,0,0,105,307.76Zm17.72-96.31H248.84v52.16a55.37,55.37,0,0,0-21,7.17l-18.94,11.1a25.28,25.28,0,0,1-25.84-.14l-17.72-10.65A55.33,55.33,0,0,0,122.75,265V211.45Z" transform="translate(-30.95)"/>
    <path d="M446.92,382a25.3,25.3,0,0,1-25.85-.14l-17.72-10.65a55.28,55.28,0,0,0-56.51-.31L327.9,382a25.3,25.3,0,0,1-25.85-.14l-17.72-10.65a55.3,55.3,0,0,0-56.52-.31L208.87,382a25.28,25.28,0,0,1-25.84-.14l-17.72-10.65a55.3,55.3,0,0,0-56.52-.31L89.85,382A25.28,25.28,0,0,1,64,381.87l-17.6-10.58L31,397l17.6,10.59a55.27,55.27,0,0,0,56.48.31L124,396.78a25.33,25.33,0,0,1,25.88.15l17.72,10.65a55.27,55.27,0,0,0,56.48.31L243,396.78a25.31,25.31,0,0,1,25.88.15l17.72,10.65a55.3,55.3,0,0,0,56.48.31L362,396.78a25.33,25.33,0,0,1,25.88.15l17.73,10.65a55.26,55.26,0,0,0,56.47.31l19-11.12L465.88,370.9Z" transform="translate(-30.95)"/>
    <path d="M446.92,478.52a25.3,25.3,0,0,1-25.85-.15l-17.72-10.65a55.33,55.33,0,0,0-56.51-.31L327.9,478.52a25.3,25.3,0,0,1-25.85-.15l-17.72-10.65a55.32,55.32,0,0,0-56.52-.31l-18.94,11.11a25.28,25.28,0,0,1-25.84-.15l-17.72-10.65a55.32,55.32,0,0,0-56.52-.31L89.85,478.52A25.28,25.28,0,0,1,64,478.37l-17.6-10.58L31,493.5l17.6,10.59a55.32,55.32,0,0,0,56.48.31L124,493.29a25.33,25.33,0,0,1,25.88.14l17.72,10.65a55.3,55.3,0,0,0,56.48.32L243,493.29a25.33,25.33,0,0,1,25.88.14l17.72,10.65a55.24,55.24,0,0,0,56.48.31L362,493.29a25.33,25.33,0,0,1,25.88.14l17.72,10.65a55.27,55.27,0,0,0,56.48.31l19-11.11L465.88,467.4Z" transform="translate(-30.95)"/>
</svg>