<svg id="Camada_1" data-name="Camada 1"
    xmlns="http://www.w3.org/2000/svg" viewBox="0 0 349.6 392">
    <defs>
        <style>.cls-1{fill:#231f20;}</style>
    </defs>
    <path class="cls-1" d="M343,518.45c33-54.8,74.8-131.84,74.8-171.44a121.12,121.12,0,1,0-242.24,0c0,39.6,41.76,116.64,74.8,171.44-39.2,3-128.4,13.6-128.4,48.88,0,34.72,90.56,50.56,174.8,50.56s174.8-15.84,174.8-50.56c-.08-35.28-89.36-45.92-128.56-48.88ZM192.32,347a104.44,104.44,0,1,1,208.88,0c0,50.32-80.16,176.56-104.48,213.68C272.4,523.57,192.32,397.33,192.32,347Zm104.4,254.16c-102.32,0-158.08-22.4-158.08-33.92,0-8.88,36.8-28,121.6-32.88,15.92,25.68,28,43.84,29.6,46,2.16,2.88,8.48,6.32,13.84,0,1.68-2,13.68-20.32,29.6-46,84.8,4.88,121.6,23.92,121.6,32.88-.08,11.6-55.84,33.92-158.16,33.92Zm0,0" transform="translate(-122 -225.89)"/>
    <path class="cls-1" d="M349.44,347a52.72,52.72,0,1,0-52.72,52.72A52.72,52.72,0,0,0,349.44,347Zm-88.8,0a36.08,36.08,0,1,1,36.08,36.08A36.09,36.09,0,0,1,260.64,347Zm0,0" transform="translate(-122 -225.89)"/>
</svg>