<svg id="Camada_1" data-name="Camada 1"
    xmlns="http://www.w3.org/2000/svg"
    xmlns:xlink="http://www.w3.org/1999/xlink" viewBox="0 0 294.57 292.93">
    <defs>
        <style>.cls-1{fill:none;}.cls-2{clip-path:url(#clip-path);}</style>
        <clipPath id="clip-path" transform="translate(-149.72 -275.42)">
            <rect class="cls-1" x="149" y="274.89" width="296" height="294"/>
        </clipPath>
    </defs>
    <g class="cls-2">
        <path d="M199.15,509.44a4.5,4.5,0,1,0-6.36,6.36l11.11,11.12a4.5,4.5,0,1,0,6.37-6.37Zm0,0" transform="translate(-149.72 -275.42)"/>
        <path d="M201.51,411.16c4.24,4.13,10.49-2.12,6.36-6.36l-47.28-47.28,15.5-15.32,71.16,71.16-92.4,92.4a12,12,0,0,0,0,17L197,564.85a12,12,0,0,0,17,0l92.41-92.4L373,539.06a4.31,4.31,0,0,0,.62.51l.19.12a4.3,4.3,0,0,0,.6.32l.1,0a3.84,3.84,0,0,0,.6.2l48.07,11.84a4.5,4.5,0,0,0,5.45-5.44l-11.85-48.08a4.62,4.62,0,0,0-.19-.6l-.05-.1a4.87,4.87,0,0,0-.31-.6c0-.06-.09-.12-.13-.19a4.94,4.94,0,0,0-.51-.62l-66.61-66.61L440.77,338a12,12,0,0,0,0-17l-42.11-42.11a12,12,0,0,0-17,0l-91.84,91.84-74.28-74.28a4.49,4.49,0,0,0-6.36,0l-2.2,2.2-6.1-6.2a22.38,22.38,0,0,0-16-6.73h0a22.54,22.54,0,0,0-15.94,38.47l6.25,6.23-24.11,23.85a4.51,4.51,0,0,0,0,6.38ZM406,499.65l-29.87,29.86L198.43,351.82,228.3,322ZM207.57,558.49a3,3,0,0,1-4.24,0l-42.11-42.12a3,3,0,0,1,0-4.24l63-63,20.1,20.1a4.5,4.5,0,1,0,6.37-6.37l-20.11-20.1,23.07-23.06L300,466.08ZM385,533.42l25-24.95,8.15,33.11ZM315.22,358.13l20.1,20.1a4.5,4.5,0,1,0,6.36-6.36l-20.1-20.11,39.15-39.14,11.9,11.89a4.5,4.5,0,1,0,6.36-6.36l-11.9-11.9,21-21a3,3,0,0,1,4.25,0l42.11,42.12a3,3,0,0,1,0,4.24l-91.84,91.84-46.36-46.36Zm-93.28-42.55-29.87,29.87-9.55-9.54L212.39,306Zm-46.66,2.29a13.54,13.54,0,0,1,9.57-23.11h0a13.47,13.47,0,0,1,9.64,4.05l6.15,6.25L182.4,323.3l-.85.84Zm0,0" transform="translate(-149.72 -275.42)"/>
    </g>
</svg>