<svg id="Capa_1" data-name="Capa 1" xmlns="http://www.w3.org/2000/svg" viewBox="0 0 511.86 512"><path d="M15.07,91a15,15,0,0,0,15-15V30h45a15,15,0,1,0,0-30h-60a15,15,0,0,0-15,15V76A15,15,0,0,0,15.07,91Z" transform="translate(-0.07 0)"/><path d="M437,30h45V76a15,15,0,0,0,30,0V15a15,15,0,0,0-15-15H437a15,15,0,1,0,0,30Z" transform="translate(-0.07 0)"/><path d="M15.07,511.86h60a15,15,0,0,0,0-30h-45v-46a15,15,0,1,0-30,0v61A15,15,0,0,0,15.07,511.86Z" transform="translate(-0.07 0)"/><path d="M511.93,496.86v-61a15,15,0,1,0-30,0v46H437a15,15,0,1,0,0,30h60A15,15,0,0,0,511.93,496.86Z" transform="translate(-0.07 0)"/><path d="M32.06,136s0,.06,0,.09V376a15,15,0,0,0,7.63,13.06L248.48,510a15,15,0,0,0,15,0l208.7-120.92.11-.06c4.83-3.49,7.44-6.42,7.51-12.82,0-.06,0-.12,0-.18V136a15.06,15.06,0,0,0-7.48-13L263.52,2a15,15,0,0,0-15,0L39.54,123A15.06,15.06,0,0,0,32.06,136ZM241,264.68V471L77.18,376.07l126.3-72.43a15,15,0,0,0-14.92-26l-126.5,72.5V161.91Zm209,85.44-126.51-72.5a15,15,0,0,0-14.92,26l126.3,72.43L271,471V264.68L450,161.91ZM256,32.33,434.84,135.94,256,238.71,77.16,135.94Z" transform="translate(-0.07 0)"/></svg>